# xmcd CD database file generated by MAGIX-FreeDB-Music_Manager_2007 v2.0beta1
# 
# Track frame offsets:
#      225
#      12562
#      23958
#      36882
#      49466
#      59326
#      72751
#      84447
#      97361
#      108107
#      121561
#      134571
#      145925
#      160979
# 
# Disc length: 2361 seconds
# 
# Revision: 0 
# Processed by: cddbd v1.5.2PL0 Copyright (c) Steve Scherf et al.
# Submitted via: MAGIX-FreeDB-Music_Manager_2007 v2.0beta1
# 
DISCID=c609360e
DTITLE=Mix - Volkstümliche Gassenhauer cd 3
DYEAR=2005
DGENRE=
TTITLE0=Tiroler Spatzen - Gute Freunde
TTITLE1=Mölltaler Vagabunden - Immer locker vom Hocker
TTITLE2=Milser Musikanten - Ruck a bisserl zuaba
TTITLE3=Winffried Stark - Ohne Musi gibts ka Gaudi
TTITLE4=M&M Hellwig - Dreui Weis e Birken
TTITLE5=Die Fehringer - Der schönste Mann im Dorf
TTITLE6=Die Vailolets - Tränen passen nicht zu dir
TTITLE7=Kernbeisser - Morgenmuffel
TTITLE8=Oberkrainer sextett - Trompeten Echo
TTITLE9=Söllander Spitzbuam - Die Gamslern Schwarz und braun
TTITLE10=Tiroler Echo - Wenn die Sonne am Himmel lacht
TTITLE11=Die Kasermandln - Rehbraune Augen
TTITLE12=Peter Kaufmann - Zillertaler Hochzeitsmarsch
TTITLE13=Reit im Winkel Musikanten - Silberfäden
EXTD=
EXTT0=
EXTT1=
EXTT2=
EXTT3=
EXTT4=
EXTT5=
EXTT6=
EXTT7=
EXTT8=
EXTT9=
EXTT10=
EXTT11=
EXTT12=
EXTT13=
PLAYORDER=
